<svg width="40" height="40" viewBox="0 0 40 40" fill="none" xmlns="http://www.w3.org/2000/svg">
<path d="M28.3475 34.9917L11.6808 35.0075C8.01414 35.0108 5.01164 32.0142 5.00747 28.3475L4.99164 11.6808C4.98831 8.01417 7.98497 5.01167 11.6516 5.0075L28.3183 4.99167C31.985 4.98834 34.9875 7.98501 34.9916 11.6517L35.0075 28.3183C35.0116 31.9858 32.0141 34.9883 28.3475 34.9917Z" fill="url(#paint0_radial_101_99)"/>
<path d="M28.3475 34.9917L11.6808 35.0075C8.01414 35.0108 5.01164 32.0142 5.00747 28.3475L4.99164 11.6808C4.98831 8.01417 7.98497 5.01167 11.6516 5.0075L28.3183 4.99167C31.985 4.98834 34.9875 7.98501 34.9916 11.6517L35.0075 28.3183C35.0116 31.9858 32.0141 34.9883 28.3475 34.9917Z" fill="url(#paint1_radial_101_99)"/>
<path d="M20 25.8333C16.7842 25.8333 14.1667 23.2167 14.1667 20C14.1667 16.7833 16.7842 14.1667 20 14.1667C23.2159 14.1667 25.8334 16.7833 25.8334 20C25.8334 23.2167 23.2159 25.8333 20 25.8333ZM20 15.8333C17.7025 15.8333 15.8334 17.7025 15.8334 20C15.8334 22.2975 17.7025 24.1667 20 24.1667C22.2975 24.1667 24.1667 22.2975 24.1667 20C24.1667 17.7025 22.2975 15.8333 20 15.8333Z" fill="white"/>
<path d="M26.25 15C26.9404 15 27.5 14.4404 27.5 13.75C27.5 13.0596 26.9404 12.5 26.25 12.5C25.5596 12.5 25 13.0596 25 13.75C25 14.4404 25.5596 15 26.25 15Z" fill="white"/>
<path d="M25 30.8333H15C11.7842 30.8333 9.16669 28.2167 9.16669 25V15C9.16669 11.7833 11.7842 9.16666 15 9.16666H25C28.2159 9.16666 30.8334 11.7833 30.8334 15V25C30.8334 28.2167 28.2159 30.8333 25 30.8333ZM15 10.8333C12.7025 10.8333 10.8334 12.7025 10.8334 15V25C10.8334 27.2975 12.7025 29.1667 15 29.1667H25C27.2975 29.1667 29.1667 27.2975 29.1667 25V15C29.1667 12.7025 27.2975 10.8333 25 10.8333H15Z" fill="white"/>
<defs>
<radialGradient id="paint0_radial_101_99" cx="0" cy="0" r="1" gradientUnits="userSpaceOnUse" gradientTransform="translate(16.1501 35.0293) scale(37.4157 37.4157)">
<stop stop-color="#FFDD55"/>
<stop offset="0.328" stop-color="#FF543F"/>
<stop offset="0.3484" stop-color="#FC5245"/>
<stop offset="0.5039" stop-color="#E64771"/>
<stop offset="0.6433" stop-color="#D53E91"/>
<stop offset="0.7606" stop-color="#CC39A4"/>
<stop offset="0.8414" stop-color="#C837AB"/>
</radialGradient>
<radialGradient id="paint1_radial_101_99" cx="0" cy="0" r="1" gradientUnits="userSpaceOnUse" gradientTransform="translate(9.82156 4.61698) scale(24.8445 16.5539)">
<stop stop-color="#4168C9"/>
<stop offset="0.9988" stop-color="#4168C9" stop-opacity="0"/>
</radialGradient>
</defs>
</svg>
