<svg width="40" height="40" viewBox="0 0 40 40" fill="none" xmlns="http://www.w3.org/2000/svg">
<path d="M35 10.3575C33.8975 10.8458 32.7117 11.1717 31.4608 11.3258C32.7325 10.5708 33.7108 9.36667 34.17 7.94417C32.98 8.64167 31.6617 9.15417 30.2592 9.42417C29.1392 8.23667 27.5417 7.5 25.7717 7.5C22.3717 7.5 19.6158 10.2317 19.6158 13.6C19.6158 14.0767 19.6717 14.5408 19.7767 14.9917C14.6617 14.735 10.125 12.3033 7.09 8.61333C6.55666 9.515 6.25666 10.5708 6.25666 11.685C6.25666 13.8025 7.34083 15.6667 8.99416 16.765C7.985 16.7342 7.035 16.4533 6.20333 16.0033C6.20333 16.0217 6.20333 16.0492 6.20333 16.075C6.20333 19.0342 8.32583 21.4983 11.1392 22.0592C10.625 22.2 10.0817 22.2783 9.52166 22.2783C9.12416 22.2783 8.73666 22.2333 8.36166 22.1658C9.145 24.5842 11.4175 26.3517 14.11 26.4042C12.0033 28.0375 9.35 29.0158 6.465 29.0158C5.96666 29.0158 5.47916 28.9875 4.9975 28.9292C7.72333 30.655 10.96 31.6667 14.4342 31.6667C25.755 31.6667 31.9483 22.37 31.9483 14.305C31.9483 14.0408 31.94 13.7775 31.9275 13.5175C33.1358 12.6642 34.1775 11.5875 35 10.3575Z" fill="#03A9F4"/>
</svg>
