<svg width="149" height="30" viewBox="0 0 149 30" fill="none" xmlns="http://www.w3.org/2000/svg">
<path d="M7.88 22.8L7.44 13.92L19.48 0.999998H28.2L16.2 14L11.8 18.6L7.88 22.8ZM0.8 29V0.999998H8.64V29H0.8ZM19.6 29L10.48 17.44L15.64 11.92L28.8 29H19.6ZM32.8781 29V0.999998H40.7981V29H32.8781ZM48.4328 29V0.999998H61.2328C63.7928 0.999998 65.9928 1.41333 67.8328 2.24C69.6995 3.06667 71.1395 4.26667 72.1528 5.84C73.1661 7.38667 73.6728 9.22667 73.6728 11.36C73.6728 13.4667 73.1661 15.2933 72.1528 16.84C71.1395 18.36 69.6995 19.5333 67.8328 20.36C65.9928 21.16 63.7928 21.56 61.2328 21.56H52.8328L56.3528 18.24V29H48.4328ZM65.7528 29L58.7928 18.8H67.2328L74.2328 29H65.7528ZM56.3528 19.08L52.8328 15.44H60.7528C62.4061 15.44 63.6328 15.08 64.4328 14.36C65.2595 13.64 65.6728 12.64 65.6728 11.36C65.6728 10.0533 65.2595 9.04 64.4328 8.32C63.6328 7.6 62.4061 7.24 60.7528 7.24H52.8328L56.3528 3.6V19.08ZM80.0422 29V0.999998H87.9622V29H80.0422ZM105.437 29.56C103.144 29.56 100.93 29.28 98.7969 28.72C96.6902 28.1333 94.9702 27.3867 93.6369 26.48L96.2369 20.64C97.4902 21.44 98.9302 22.1067 100.557 22.64C102.21 23.1467 103.85 23.4 105.477 23.4C106.57 23.4 107.45 23.3067 108.117 23.12C108.784 22.9067 109.264 22.64 109.557 22.32C109.877 21.9733 110.037 21.5733 110.037 21.12C110.037 20.48 109.744 19.9733 109.157 19.6C108.57 19.2267 107.81 18.92 106.877 18.68C105.944 18.44 104.904 18.2 103.757 17.96C102.637 17.72 101.504 17.4133 100.357 17.04C99.2369 16.6667 98.2102 16.1867 97.2769 15.6C96.3435 14.9867 95.5835 14.2 94.9969 13.24C94.4102 12.2533 94.1169 11.0133 94.1169 9.52C94.1169 7.84 94.5702 6.32 95.4769 4.96C96.4102 3.6 97.7969 2.50667 99.6369 1.68C101.477 0.853332 103.77 0.439998 106.517 0.439998C108.357 0.439998 110.157 0.653332 111.917 1.08C113.704 1.48 115.29 2.08 116.677 2.88L114.237 8.76C112.904 8.04 111.584 7.50667 110.277 7.16C108.97 6.78667 107.704 6.6 106.477 6.6C105.384 6.6 104.504 6.72 103.837 6.96C103.17 7.17333 102.69 7.46666 102.397 7.84C102.104 8.21333 101.957 8.64 101.957 9.12C101.957 9.73333 102.237 10.2267 102.797 10.6C103.384 10.9467 104.144 11.24 105.077 11.48C106.037 11.6933 107.077 11.92 108.197 12.16C109.344 12.4 110.477 12.7067 111.597 13.08C112.744 13.4267 113.784 13.9067 114.717 14.52C115.65 15.1067 116.397 15.8933 116.957 16.88C117.544 17.84 117.837 19.0533 117.837 20.52C117.837 22.1467 117.37 23.6533 116.437 25.04C115.53 26.4 114.157 27.4933 112.317 28.32C110.504 29.1467 108.21 29.56 105.437 29.56ZM129.989 29V17.16L131.829 21.92L119.309 0.999998H127.669L136.709 16.16H131.869L140.949 0.999998H148.629L136.149 21.92L137.909 17.16V29H129.989Z" fill="url(#paint0_linear_68_4)"/>
<defs>
<linearGradient id="paint0_linear_68_4" x1="-68.5" y1="-21" x2="133.214" y2="129.701" gradientUnits="userSpaceOnUse">
<stop stop-color="#E4E6FB"/>
<stop offset="1" stop-color="#3449EC"/>
</linearGradient>
</defs>
</svg>
